<svg role="img" viewBox="0 0 24 24" xmlns="http://www.w3.org/2000/svg" id="Amazondocumentdb--Streamline-Simple-Icons.svg" height="24" width="24"><desc>Amazondocumentdb Streamline Icon: https://streamlinehq.com</desc><title>Amazon DocumentDB</title><path d="m16.5053 21.0947 0.7158 0.4632C16.2526 23.0316 13.0947 24 9.3895 24c-4.6316 0 -8.1263 -1.4737 -8.1263 -3.4105V3.3685C1.2632 1.7262 4.1263 0 9.4737 0c5.3474 0 8.2105 1.7263 8.2105 3.3684v2.9053h-0.8421V4.8842c-1.221 1.0105 -3.7053 1.8105 -7.3684 1.8105 -3.6632 0 -6.1474 -0.8 -7.3684 -1.8105v4.8c0.3368 1.179 3.2 2.3579 7.242 2.3579q1.0948 0 2.1053 -0.1263l0.1263 0.842q-1.0947 0.1264 -2.2315 0.1264c-3.2421 0 -5.9369 -0.7158 -7.2421 -1.8105v4.5052c0.3368 1.1369 3.2 2.3158 7.242 2.3158q1.0527 0 2.1053 -0.0842l0.1263 0.8q-1.1368 0.1263 -2.2315 0.1263c-3.2421 0 -5.9369 -0.7157 -7.2421 -1.8105v3.6632c0 1.221 2.9894 2.5684 7.2842 2.5684 3.7894 0 6.442 -1.0526 7.1158 -2.0632zm-14.4 -17.7263c0 1.179 3.0315 2.4842 7.3684 2.4842 4.3368 0 7.3684 -1.3052 7.3684 -2.4842 0 -1.221 -3.0316 -2.5263 -7.3684 -2.5263 -4.3369 0 -7.3684 1.3053 -7.3684 2.5263zm20.6315 7.6632v9.0947c0 0.2526 -0.1684 0.421 -0.421 0.421h-8c-0.2526 0 -0.421 -0.1684 -0.421 -0.421V9.2211c0 -0.2106 0.1684 -0.4211 0.421 -0.4211h4.6316l-0.7158 -0.8421h-5.179V18.021h0.421v0.842h-0.842c-0.2527 0 -0.421 -0.1684 -0.421 -0.421V7.5368c0 -0.2105 0.1683 -0.421 0.421 -0.421h5.8105c0.1263 0 0.2526 0.0842 0.2947 0.1684L20.0421 8.8h0.4632q0.1684 0 0.2947 0.1263l1.8105 1.8105q0.1263 0.1264 0.1263 0.2948zm-0.842 0.7158h-2.1053c-0.2527 0 -0.421 -0.1685 -0.421 -0.421V9.642h-4.6317v10.0632h7.158zm-2.4422 0.9684c0.2527 0 0.4632 0.0842 0.5895 0.2526 0.2526 0.3369 0.2105 0.8 0.2105 0.9684 0 0.8843 0.5053 1.0527 0.5474 1.0948 0.1684 0.042 0.2947 0.2105 0.2947 0.421 0 0.1685 -0.1263 0.3369 -0.2947 0.379 -0.0421 0 -0.5474 0.2105 -0.5474 1.0947 0 0.5053 -0.2526 1.0526 -0.8 1.0526h-0.2947v-0.842h0.2105c0 -0.0422 0.0421 -0.1264 0.0421 -0.2106 0 -0.7579 0.2527 -1.221 0.5053 -1.5158 -0.2526 -0.2526 -0.5053 -0.7579 -0.5053 -1.5158v-0.3368h-0.2526v-0.8421zm0.758 -1.8105h1.3473L20.2947 9.642h-0.0842zm-2.737 1.8105h0.337v0.842h-0.2527v0.2106c0 0.758 -0.2526 1.221 -0.5474 1.5158 0.2948 0.2947 0.5474 0.7579 0.5474 1.5158q0 0.0421 -0.0421 0.0842v0.2947h0.2947v0.8422h-0.3368c-0.2105 0 -0.421 -0.1264 -0.5895 -0.2948 -0.2526 -0.2947 -0.2105 -0.8 -0.1684 -0.9684 -0.0421 -0.8842 -0.5053 -1.0526 -0.5895 -1.0526 -0.1684 -0.0421 -0.2947 -0.2527 -0.2947 -0.421 0 -0.1685 0.1263 -0.337 0.3368 -0.379 0.0421 -0.0421 0.5474 -0.2106 0.5474 -1.1369 -0.0421 -0.4631 0.2105 -1.0526 0.7579 -1.0526z" fill="#000000" stroke-width="1"></path></svg>